<svg width="300" height="625" viewBox="0 0 365 625" fill="none" xmlns="http://www.w3.org/2000/svg">
                <g clip-path="url(#clip0_11_2)">
                    <path
                        d="M52.1751 96.7094C66.8089 107.048 80.6138 116.904 94.5241 126.625C108.088 136.104 121.395 146.006 135.517 154.551C141.168 157.972 148.674 159.479 155.41 159.751C173.209 160.444 191.098 160.67 208.881 159.69C216.779 159.253 225.625 157.189 232.09 152.908C258.012 135.758 283.165 117.447 308.605 99.5879C309.63 98.8645 310.82 98.3822 313.262 97.0711C304.069 89.2644 296.367 82.6784 288.621 76.1528C273.671 63.5385 258.525 51.1202 243.77 38.2798C236.25 31.724 234.592 22.1691 238.435 13.6391C242.504 4.62671 250.974 -0.964562 260.665 0.316457C265.126 0.904218 269.979 2.92371 273.445 5.77209C299.804 27.4138 325.876 49.4021 352.024 71.3C370.019 86.3708 369.175 111.117 349.989 124.651C318.446 146.91 286.843 169.079 255.073 191.038C249.542 194.866 247.222 199.131 247.252 205.943C247.508 256.415 246.513 306.917 247.855 357.359C248.337 375.625 253.687 393.83 257.575 411.915C262.262 433.693 268.954 455.108 272.465 477.051C274.967 492.725 274.153 509.017 273.927 525.007C273.611 547.839 272.435 570.671 271.742 593.504C271.154 612.794 258.977 624.776 240.41 624.128C224.314 623.57 212.89 609.358 213.614 591.364C214.834 560.514 216.161 529.664 216.643 498.814C216.763 490.721 214.322 482.492 212.468 474.459C204.993 442.027 197.443 409.61 189.44 377.313C188.687 374.268 184.617 372.038 182.086 369.416C179.719 371.917 175.937 374.057 175.228 376.966C166.02 414.658 156.556 452.305 148.794 490.314C146.292 502.581 148.357 515.829 148.719 528.609C149.322 550.431 150.467 572.239 150.949 594.076C151.296 609.855 139.571 623.133 125.193 624.097C107.907 625.258 94.5543 614.859 93.1677 597.512C91.6757 578.764 91.5853 559.911 90.9222 541.102C90.4851 528.805 90.6358 516.462 89.5508 504.239C87.7875 484.406 94.9009 466.185 98.9097 447.407C104.034 423.414 110.017 399.603 115.277 375.64C116.663 369.325 117.296 362.724 117.326 356.244C117.492 306.525 117.266 256.792 117.537 207.058C117.582 199.025 114.448 194.338 107.997 189.907C84.8788 174.023 62.1671 157.52 39.2896 141.274C31.1363 135.471 22.9227 129.745 14.7543 123.957C-3.57179 110.951 -5.22958 87.0791 11.6949 72.4152C31.6035 55.1591 51.9792 38.4607 72.159 21.506C78.3079 16.3367 84.3664 11.077 90.6057 6.01322C101.411 -2.77306 114.463 -1.83867 122.676 8.16835C131.222 18.5823 129.925 30.7746 119.09 39.9226C98.3822 57.4047 77.5996 74.7964 56.8622 92.2484C55.5359 93.3636 54.3303 94.6296 52.1299 96.7094H52.1751Z"
                        fill="black" />
                    <path
                        d="M181.573 151.07C152.306 150.859 128.494 126.67 128.81 97.6287C129.142 68.6324 152.532 43.856 183.427 44.5794C212.725 45.2576 235.813 68.5119 235.572 98.3069C235.331 128.237 211.745 151.281 181.573 151.07Z"
                        fill="black" />
                </g>
                <defs>
                    <clipPath id="clip0_11_2">
                        <rect width="365" height="624.173" fill="white" />
                    </clipPath>
                </defs>
            </svg>